# xmcd CD database file
#
# Track frame offsets:
#	150
#	14441
#	30268
#	46807
#	63811
#	76204
#	88270
#	101444
#	117746
#	130072
#	143556
#	159250
#	172129
#
# Disc length: 2487 seconds
#
# Revision: 2
# Processed by: cddbd v1.4PL0 Copyright (c) Steve Scherf et al.
# Submitted via: CDex 1.50beta10
#
DISCID=9d09b50d
DTITLE=John Lee Hooker - Black Man Blues
DYEAR=1998
DGENRE=Blues
TTITLE0=Stomp Boogie (December, 1948)
TTITLE1=Black Man Blues (December, 1948)
TTITLE2=Helpless Blues
TTITLE3=Goin' Mad Blues
TTITLE4=Morning Blues
TTITLE5=Rock N' Roll
TTITLE6=No Friend Around
TTITLE7=Low Down-Midnite Boogie
TTITLE8=House Rent Boogie
TTITLE9=Wandering Blues
TTITLE10=Landing Blues
TTITLE11=My Baby's Got Somethin'
TTITLE12=Do The Boogie
EXTD=YEAR: 1998
EXTT0=
EXTT1=
EXTT2=
EXTT3=
EXTT4=
EXTT5=
EXTT6=
EXTT7=
EXTT8=
EXTT9=
EXTT10=
EXTT11=
EXTT12=
PLAYORDER=
